<?xml version="1.0" encoding="UTF-8"?>
<svg version="1.1" viewBox="0 0 2048 1150" width="100%" height="100%"
	xmlns="http://www.w3.org/2000/svg">
	<path transform="translate(212,272)" d="m0 0h1188l11 1 6 8 7 3 8-1 5-5 4-5 6-1h351l34 1 16 2 10 5 6 7 4 11 2 15v521l-2 20-4 11-7 8-8 4-9 2-11 1h-387l-6-11-4-3h-11l-5 4-5 10h-1211l-14-2-9-3-9-8-4-9-2-11v-543l3-12 6-10 7-5 11-3z" fill="#F1EBEBFF"/>
	<line x1="1425" y1="285" x2="1425" y2="865" stroke="#000" stroke-width="2" stroke-dasharray="15,15"/>
</svg>
